<?xml version="1.0" encoding="UTF-8" standalone="no"?>
<svg
   width="100%"
   height="100%"
   viewBox="0 0 800 600"
   preserveAspectRatio="xMidYMid slice"
   version="1.1"
   id="svg30"
   sodipodi:docname="background.svg"
   inkscape:version="1.4 (e7c3feb1, 2024-10-09)"
   xmlns:inkscape="http://www.inkscape.org/namespaces/inkscape"
   xmlns:sodipodi="http://sodipodi.sourceforge.net/DTD/sodipodi-0.dtd"
   xmlns:xlink="http://www.w3.org/1999/xlink"
   xmlns="http://www.w3.org/2000/svg"
   xmlns:svg="http://www.w3.org/2000/svg">
  <sodipodi:namedview
     id="namedview30"
     pagecolor="#ffffff"
     bordercolor="#000000"
     borderopacity="0.25"
     inkscape:showpageshadow="2"
     inkscape:pageopacity="0.0"
     inkscape:pagecheckerboard="0"
     inkscape:deskcolor="#d1d1d1"
     inkscape:zoom="0.72522143"
     inkscape:cx="428.1451"
     inkscape:cy="211.65949"
     inkscape:window-width="1680"
     inkscape:window-height="930"
     inkscape:window-x="0"
     inkscape:window-y="31"
     inkscape:window-maximized="1"
     inkscape:current-layer="svg30" />
  <defs
     id="defs25">
    <pattern
       inkscape:collect="always"
       xlink:href="#cloudPattern"
       id="pattern31"
       patternTransform="scale(1)" />
    <!-- 暗红背景渐变 -->
    <radialGradient
       id="bgGrad"
       cx="50%"
       cy="50%"
       r="80%">
      <stop
         offset="0.30998248"
         stop-color="#2a0a0a"
         id="stop1"
         style="stop-color:#a22727;stop-opacity:1;" />
      <stop
         offset="1"
         stop-color="#1a0505"
         id="stop2"
         style="stop-color:#1a0505;stop-opacity:0.78552973;" />
    </radialGradient>
    <!-- 暗金渐变 -->
    <linearGradient
       id="goldGrad"
       x1="0%"
       y1="0%"
       x2="100%"
       y2="100%">
      <stop
         offset="0%"
         stop-color="#d4a574"
         id="stop4" />
      <stop
         offset="50%"
         stop-color="#8b6914"
         id="stop5" />
      <stop
         offset="100%"
         stop-color="#5c4033"
         id="stop6" />
    </linearGradient>
    <!-- 深红渐变 -->
    <linearGradient
       id="redGrad"
       x1="0%"
       y1="0%"
       x2="100%"
       y2="100%">
      <stop
         offset="0%"
         stop-color="#8b0000"
         id="stop7" />
      <stop
         offset="50%"
         stop-color="#4a0000"
         id="stop8" />
      <stop
         offset="100%"
         stop-color="#2a0000"
         id="stop9" />
    </linearGradient>
    <!-- 暗红描边 -->
    <linearGradient
       id="strokeGrad"
       x1="0%"
       y1="0%"
       x2="100%"
       y2="100%">
      <stop
         offset="0%"
         stop-color="#6b0f0f"
         id="stop10" />
      <stop
         offset="50%"
         stop-color="#3d0b0b"
         id="stop11" />
      <stop
         offset="100%"
         stop-color="#1f0505"
         id="stop12" />
    </linearGradient>
    <!-- 复杂祥云单体 -->
    <g
       id="cloud">
      <!-- 外层祥云轮廓 -->
      <path
         d="M 20,40                 C 10,40 5,32 5,24                 C 5,14 16,10 24,14                 C 28,4 42,2 52,8                 C 62,2 76,4 80,14                 C 88,10 99,14 99,24                 C 99,32 94,40 84,40                 C 88,48 80,56 72,56                 C 64,60 56,56 48,52                 C 40,56 32,60 24,56                 C 16,56 8,48 12,40 Z"
         fill="none"
         stroke="url(#goldGrad)"
         stroke-width="1.5"
         opacity="0.5"
         id="path12" />
      <!-- 中层祥云 -->
      <path
         d="M 24,36                 C 16,36 12,30 12,24                 C 12,16 20,12 28,16                 C 32,8 44,6 52,12                 C 60,6 72,8 76,16                 C 84,12 92,16 92,24                 C 92,30 88,36 80,36                 C 84,42 78,48 70,48                 C 64,52 56,48 48,44                 C 40,48 32,52 26,48                 C 18,48 12,42 16,36 Z"
         fill="none"
         stroke="url(#strokeGrad)"
         stroke-width="1.2"
         opacity="0.7"
         id="path13" />
      <!-- 内层装饰线 -->
      <path
         d="M 30,32                 C 24,32 20,28 20,24                 C 20,18 26,16 32,18                 C 36,12 44,10 50,14                 C 56,10 64,12 68,18                 C 74,16 80,18 80,24                 C 80,28 76,32 70,32                 C 72,36 68,40 62,40                 C 58,42 52,40 48,38                 C 44,40 38,42 34,40                 C 28,40 24,36 26,32 Z"
         fill="none"
         stroke="url(#redGrad)"
         stroke-width="0.8"
         opacity="0.6"
         id="path14" />
      <!-- 祥云卷曲细节 -->
      <circle
         cx="28"
         cy="22"
         r="3"
         fill="none"
         stroke="url(#goldGrad)"
         stroke-width="0.6"
         opacity="0.4"
         id="circle14" />
      <circle
         cx="72"
         cy="22"
         r="3"
         fill="none"
         stroke="url(#goldGrad)"
         stroke-width="0.6"
         opacity="0.4"
         id="circle15" />
      <path
         d="M 40,28 Q 48,22 56,28"
         fill="none"
         stroke="url(#goldGrad)"
         stroke-width="0.5"
         opacity="0.3"
         id="path15" />
    </g>
    <!-- 祥云纹理图案 -->
    <pattern
       id="cloudPattern"
       x="0"
       y="0"
       width="240"
       height="180"
       patternUnits="userSpaceOnUse"
       inkscape:label="cloudPattern">
      <use
         href="#cloud"
         x="0"
         y="0"
         transform="scale(1.3)"
         id="use15" />
      <use
         href="#cloud"
         x="120"
         y="90"
         transform="scale(0.95) rotate(12 50 30)"
         id="use16" />
      <use
         href="#cloud"
         x="60"
         y="0"
         transform="scale(0.75) rotate(-8 50 30)"
         id="use17" />
      <use
         href="#cloud"
         x="180"
         y="0"
         transform="scale(1.1) rotate(6 50 30)"
         id="use18" />
      <use
         href="#cloud"
         x="0"
         y="90"
         transform="scale(0.85) rotate(-6 50 30)"
         id="use19" />
      <use
         href="#cloud"
         x="120"
         y="0"
         transform="scale(0.65) rotate(18 50 30)"
         id="use20" />
      <use
         href="#cloud"
         x="60"
         y="90"
         transform="scale(0.7) rotate(-15 50 30)"
         id="use21" />
      <use
         href="#cloud"
         x="180"
         y="90"
         transform="scale(0.8) rotate(10 50 30)"
         id="use22" />
    </pattern>
    <!-- 流线云纹 -->
    <g
       id="swirl">
      <path
         d="M 0,50 Q 30,0 60,50 T 120,50 T 180,50"
         fill="none"
         stroke="url(#goldGrad)"
         stroke-width="1.2"
         opacity="0.25"
         id="path22" />
      <path
         d="M 15,50 Q 45,15 75,50 T 135,50"
         fill="none"
         stroke="url(#redGrad)"
         stroke-width="0.8"
         opacity="0.2"
         id="path23" />
      <path
         d="M 30,50 Q 55,25 80,50 T 130,50"
         fill="none"
         stroke="url(#strokeGrad)"
         stroke-width="0.6"
         opacity="0.3"
         id="path24" />
    </g>
    <pattern
       id="swirlPattern"
       x="0"
       y="0"
       width="360"
       height="240"
       patternUnits="userSpaceOnUse"
       inkscape:label="swirlPattern">
      <use
         href="#swirl"
         x="0"
         y="0"
         id="use24" />
      <use
         href="#swirl"
         x="180"
         y="120"
         transform="rotate(180 90 60)"
         id="use25" />
    </pattern>
  </defs>
  <!-- 暗红背景 -->
  <rect
     width="100%"
     height="100%"
     fill="url(#bgGrad)"
     id="rect25"
     x="0"
     y="0"
     style="display:inline;mix-blend-mode:normal" />
  <!-- 底层流线 -->
  <rect
     width="100%"
     height="100%"
     fill="url(#swirlPattern)"
     opacity="0.6"
     id="rect26"
     x="0"
     y="0"
     style="display:inline"
     sodipodi:insensitive="true" />
  <!-- 主祥云纹理 -->
  <rect
     width="100%"
     height="100%"
     fill="url(#cloudPattern)"
     opacity="0.75"
     id="rect27"
     style="display:inline;fill:url(#pattern31);fill-opacity:1"
     x="0"
     y="0"
     sodipodi:insensitive="true" />
  <!-- 四角暗金装饰 -->
  <g
     opacity="0.35"
     id="g30"
     sodipodi:insensitive="true">
    <path
       d="M 0,0 H 180 Q 150,40 120,80 80,50 0,100 Z"
       fill="url(#goldGrad)"
       opacity="0.08"
       id="path27" />
    <path
       d="M 800,0 H 620 q 30,40 60,80 40,-30 120,20 z"
       fill="url(#goldGrad)"
       opacity="0.08"
       id="path28" />
    <path
       d="M 0,600 H 180 Q 150,560 120,520 80,550 0,500 Z"
       fill="url(#goldGrad)"
       opacity="0.08"
       id="path29" />
    <path
       d="M 800,600 H 620 q 30,-40 60,-80 40,30 120,-20 z"
       fill="url(#goldGrad)"
       opacity="0.08"
       id="path30" />
  </g>
  <!-- 中心暗红光晕 -->
  <!-- 边缘暗角 -->
</svg>
